<svg viewBox="0 0 1440 200" xmlns="http://www.w3.org/2000/svg">
  <defs>
    <!-- Enhanced gradient with more contrast -->
    <linearGradient id="heroWave" x1="0%" y1="0%" x2="0%" y2="100%">
      <stop offset="0%" style="stop-color:#1E40AF;stop-opacity:0" />
      <stop offset="50%" style="stop-color:#2563EB;stop-opacity:0.08" />
      <stop offset="100%" style="stop-color:#3B82F6;stop-opacity:0.15" />
    </linearGradient>

    <!-- Shadow for depth -->
    <filter id="shadow">
      <feGaussianBlur in="SourceAlpha" stdDeviation="4"/>
      <feOffset dx="0" dy="4" result="offsetblur"/>
      <feFlood flood-color="#000000" flood-opacity="0.1"/>
      <feComposite in2="offsetblur" operator="in"/>
      <feMerge>
        <feMergeNode/>
        <feMergeNode in="SourceGraphic"/>
      </feMerge>
    </filter>
  </defs>

  <!-- Multi-layer wave for depth -->
  <path d="M 0,100 C 240,140 480,60 720,80 C 960,100 1200,120 1440,80 L 1440,200 L 0,200 Z"
        fill="url(#heroWave)"
        opacity="0.4" />

  <path d="M 0,120 C 360,160 720,80 1080,100 C 1260,110 1380,130 1440,120 L 1440,200 L 0,200 Z"
        fill="url(#heroWave)"
        opacity="0.6"
        filter="url(#shadow)" />

  <path d="M 0,140 C 320,180 640,100 960,120 C 1200,135 1350,150 1440,140 L 1440,200 L 0,200 Z"
        fill="#ffffff"
        opacity="0.15" />

  <!-- Accent shapes for visual interest -->
  <circle cx="200" cy="120" r="60" fill="#3B82F6" opacity="0.03" />
  <circle cx="1200" cy="100" r="80" fill="#60A5FA" opacity="0.04" />
</svg>