<svg viewBox="0 0 1440 400" xmlns="http://www.w3.org/2000/svg">
  <defs>
    <!-- Subtle bubble gradients for depth -->
    <radialGradient id="bubble1" cx="50%" cy="30%" r="70%">
      <stop offset="0%" style="stop-color:#FFFFFF;stop-opacity:0.08" />
      <stop offset="100%" style="stop-color:#93C5FD;stop-opacity:0.02" />
    </radialGradient>

    <radialGradient id="bubble2" cx="50%" cy="30%" r="70%">
      <stop offset="0%" style="stop-color:#DBEAFE;stop-opacity:0.06" />
      <stop offset="100%" style="stop-color:#60A5FA;stop-opacity:0.015" />
    </radialGradient>

    <radialGradient id="bubble3" cx="50%" cy="30%" r="70%">
      <stop offset="0%" style="stop-color:#FFFFFF;stop-opacity:0.05" />
      <stop offset="100%" style="stop-color:#3B82F6;stop-opacity:0.01" />
    </radialGradient>
  </defs>

  <!-- Top section bubbles -->
  <circle cx="150" cy="60" r="35" fill="url(#bubble1)" />
  <circle cx="320" cy="45" r="22" fill="url(#bubble2)" />
  <circle cx="480" cy="75" r="28" fill="url(#bubble3)" />
  <circle cx="650" cy="55" r="18" fill="url(#bubble1)" />
  <circle cx="820" cy="80" r="32" fill="url(#bubble2)" />
  <circle cx="980" cy="40" r="25" fill="url(#bubble3)" />
  <circle cx="1150" cy="70" r="30" fill="url(#bubble1)" />
  <circle cx="1320" cy="50" r="20" fill="url(#bubble2)" />

  <!-- Middle section bubbles -->
  <circle cx="80" cy="150" r="40" fill="url(#bubble2)" />
  <circle cx="250" cy="130" r="24" fill="url(#bubble3)" />
  <circle cx="420" cy="160" r="36" fill="url(#bubble1)" />
  <circle cx="590" cy="140" r="26" fill="url(#bubble2)" />
  <circle cx="750" cy="170" r="31" fill="url(#bubble3)" />
  <circle cx="920" cy="125" r="19" fill="url(#bubble1)" />
  <circle cx="1080" cy="155" r="38" fill="url(#bubble2)" />
  <circle cx="1250" cy="135" r="23" fill="url(#bubble3)" />
  <circle cx="1380" cy="165" r="29" fill="url(#bubble1)" />

  <!-- Lower section bubbles -->
  <circle cx="120" cy="240" r="27" fill="url(#bubble3)" />
  <circle cx="290" cy="220" r="33" fill="url(#bubble1)" />
  <circle cx="460" cy="250" r="21" fill="url(#bubble2)" />
  <circle cx="630" cy="230" r="37" fill="url(#bubble3)" />
  <circle cx="800" cy="260" r="25" fill="url(#bubble1)" />
  <circle cx="970" cy="210" r="34" fill="url(#bubble2)" />
  <circle cx="1140" cy="245" r="28" fill="url(#bubble3)" />
  <circle cx="1310" cy="225" r="22" fill="url(#bubble1)" />

  <!-- Bottom section bubbles -->
  <circle cx="60" cy="320" r="30" fill="url(#bubble2)" />
  <circle cx="220" cy="310" r="26" fill="url(#bubble3)" />
  <circle cx="380" cy="340" r="35" fill="url(#bubble1)" />
  <circle cx="540" cy="315" r="20" fill="url(#bubble2)" />
  <circle cx="700" cy="335" r="32" fill="url(#bubble3)" />
  <circle cx="860" cy="305" r="24" fill="url(#bubble1)" />
  <circle cx="1020" cy="325" r="39" fill="url(#bubble2)" />
  <circle cx="1180" cy="315" r="27" fill="url(#bubble3)" />
  <circle cx="1350" cy="330" r="31" fill="url(#bubble1)" />

  <!-- Small accent bubbles scattered throughout -->
  <circle cx="40" cy="90" r="12" fill="url(#bubble3)" />
  <circle cx="180" cy="180" r="15" fill="url(#bubble1)" />
  <circle cx="340" cy="280" r="14" fill="url(#bubble2)" />
  <circle cx="500" cy="110" r="16" fill="url(#bubble3)" />
  <circle cx="670" cy="190" r="13" fill="url(#bubble1)" />
  <circle cx="830" cy="280" r="17" fill="url(#bubble2)" />
  <circle cx="990" cy="85" r="11" fill="url(#bubble3)" />
  <circle cx="1120" cy="195" r="14" fill="url(#bubble1)" />
  <circle cx="1280" cy="285" r="15" fill="url(#bubble2)" />
  <circle cx="1420" cy="95" r="12" fill="url(#bubble3)" />
</svg>